<svg width="30" height="30" viewBox="0 0 30 30" fill="none" xmlns="http://www.w3.org/2000/svg">
<path d="M9.66669 20.1463L21.2935 19.1774C24.9314 18.8743 25.7482 18.0797 26.1513 14.4515L27 6.81301" stroke="#005B42" stroke-width="2" stroke-linecap="round"/>
<path d="M7 6.81301L9 6.81301M28.3333 6.81301H24.3333" stroke="#005B42" stroke-width="2" stroke-linecap="round"/>
<path d="M13 8.14634C13 8.14634 14.3333 8.14634 15.6667 10.813C15.6667 10.813 19.902 4.14634 23.6667 2.81301" stroke="#005B42" stroke-width="2" stroke-linecap="round" stroke-linejoin="round"/>
<ellipse cx="6.99998" cy="25.4797" rx="2.66667" ry="2.66667" stroke="#005B42" stroke-width="2"/>
<circle cx="21.6667" cy="25.4797" r="2.66667" stroke="#005B42" stroke-width="2"/>
<path d="M9.66667 25.4797L19 25.4797" stroke="#005B42" stroke-width="2" stroke-linecap="round"/>
<path d="M1.66669 1.47968H2.95469C4.21427 1.47968 5.31221 2.31247 5.6177 3.49958L9.58471 18.915C9.78519 19.694 9.61363 20.5193 9.11767 21.1617L7.84286 22.813" stroke="#005B42" stroke-width="2" stroke-linecap="round"/>
</svg>
