<svg width="38" height="39" viewBox="0 0 38 39" fill="none" xmlns="http://www.w3.org/2000/svg">
<path d="M34.9033 26.3331C36.8274 27.4186 36.8274 29.1784 34.9033 30.2638L25.3754 35.6388C22.0082 37.5383 16.549 37.5383 13.1818 35.6388L3.65391 30.2638C1.72981 29.1784 1.72982 27.4186 3.65391 26.3331L15.7947 19.4842C17.7188 18.3987 20.8384 18.3987 22.7625 19.4842L34.9033 26.3331Z" fill="#1A1A1A" stroke="white" stroke-width="2" stroke-linejoin="bevel"/>
<path d="M34.9033 20.6447C36.8274 21.7301 36.8274 23.4899 34.9033 24.5754L21.8915 31.9157C20.4485 32.7297 18.1088 32.7297 16.6657 31.9157L3.65391 24.5754C1.72981 23.4899 1.72982 21.7301 3.65391 20.6447L15.7947 13.7957C17.7188 12.7103 20.8384 12.7103 22.7625 13.7957L34.9033 20.6447Z" fill="#1A1A1A" stroke="white" stroke-width="2" stroke-linejoin="bevel"/>
<path d="M34.9033 14.6447C36.8274 15.7301 36.8274 17.4899 34.9033 18.5754L21.8915 25.9157C20.4485 26.7297 18.1088 26.7297 16.6657 25.9157L3.65391 18.5754C1.72981 17.4899 1.72982 15.7301 3.65391 14.6447L15.7947 7.79569C17.7188 6.71025 20.8384 6.71025 22.7625 7.79569L34.9033 14.6447Z" fill="#1A1A1A" stroke="white" stroke-width="2" stroke-linejoin="bevel"/>
<path d="M34.9033 8.64466C36.8274 9.73009 36.8274 11.4899 34.9033 12.5754L21.8915 19.9157C20.4485 20.7297 18.1088 20.7297 16.6657 19.9157L3.65391 12.5754C1.72981 11.4899 1.72982 9.73009 3.65391 8.64466L15.7947 1.79569C17.7188 0.710253 20.8384 0.710254 22.7625 1.79569L34.9033 8.64466Z" fill="#1A1A1A" stroke="white" stroke-width="2" stroke-linejoin="bevel"/>
</svg>
