<svg width="18" height="19" viewBox="0 0 18 19" fill="none" xmlns="http://www.w3.org/2000/svg">
<path d="M1.875 9.8418C1.875 6.48304 1.875 4.80366 2.91843 3.76023C3.96186 2.7168 5.64124 2.7168 9 2.7168C12.3588 2.7168 14.0381 2.7168 15.0816 3.76023C16.125 4.80366 16.125 6.48304 16.125 9.8418C16.125 13.2006 16.125 14.8799 15.0816 15.9234C14.0381 16.9668 12.3588 16.9668 9 16.9668C5.64124 16.9668 3.96186 16.9668 2.91843 15.9234C1.875 14.8799 1.875 13.2006 1.875 9.8418Z" stroke="#3D3AD3" stroke-width="1.5"/>
<path d="M7.50002 6.0918C7.50002 6.0918 10.5 8.85363 10.5 9.84183C10.5 10.83 7.5 13.5918 7.5 13.5918" stroke="#3D3AD3" stroke-width="1.5" stroke-linecap="round" stroke-linejoin="round"/>
</svg>
