<svg width="240" height="86" viewBox="0 0 240 86" fill="none" xmlns="http://www.w3.org/2000/svg">
<path fill-rule="evenodd" clip-rule="evenodd" d="M0 85.283V0H239.794V85.283H0ZM120.232 81.7997C152.235 81.7997 184.61 78.128 214.387 65.7978C223.927 61.8573 236.631 54.353 236.631 42.6409C236.631 30.9014 223.901 23.4244 214.387 19.4839C184.61 7.15504 152.234 3.48339 120.232 3.48339C88.3119 3.48339 55.5072 6.91354 25.8897 19.4839C17.0988 23.2088 3.16258 31.5713 3.16258 42.6409C3.16258 53.6831 17.0728 62.0715 25.8897 65.7978C55.5058 78.3682 88.3378 81.7997 120.232 81.7997Z" fill="#1A1A1A"/>
<path fill-rule="evenodd" clip-rule="evenodd" d="M154.003 46.744C153.385 46.3415 152.717 46.0468 151.965 46.0468H140.842V47.8697H155.532C156.253 47.8697 156.925 47.5736 157.541 47.1997V58.3211H120.366C121.009 57.7849 121.598 57.115 121.598 56.2568V27.9819C121.598 27.0991 121.009 26.4278 120.366 25.8916H157.54V35.9419C156.925 35.5408 156.253 35.2447 155.53 35.2447H140.841V37.3623H151.964C152.715 37.3623 153.384 37.0935 154.002 36.6664L154.003 46.744ZM189.512 51.836H181.286L179.65 56.6865C179.596 56.86 179.569 57.0409 179.57 57.2228C179.57 57.6253 179.704 57.9746 179.892 58.3225H160.941C161.37 57.8941 161.666 57.4397 161.88 56.8748L171.985 29.6165C172.228 28.9465 172.441 28.2234 172.441 27.5262C172.441 26.9368 172.228 26.4005 171.985 25.8916H202.618C202.377 26.4278 202.137 26.964 202.137 27.5535C202.137 28.2766 202.35 28.9738 202.618 29.6165L213.768 56.8748C213.983 57.4656 214.307 57.8927 214.788 58.3225H191.122C191.282 57.9214 191.391 57.5188 191.391 57.0904C191.391 56.8489 191.363 56.6347 191.282 56.4205L189.512 51.836ZM85.6842 46.4207V56.2295C85.6842 57.1136 86.2477 57.7576 86.8903 58.3198H64.4579C65.0746 57.7576 65.664 57.1136 65.664 56.2295V28.0092C65.664 27.0991 65.0746 26.481 64.4579 25.8916H86.8917C86.2477 26.4551 85.6855 27.0978 85.6855 28.0092V37.7648L92.1979 28.0092C92.3862 27.7145 92.5458 27.3665 92.5458 26.99C92.5458 26.6147 92.3589 26.2395 92.1979 25.8916H114.337C113.385 26.3879 112.574 27.1162 111.978 28.0092L104.205 39.2929L114.925 56.2308C115.489 57.1423 116.265 57.8122 117.23 58.3211H91.4475C91.6344 58.0537 91.8759 57.759 91.8759 57.4383C91.8759 57.0099 91.6617 56.5801 91.4475 56.2308L85.6842 46.4207ZM33.502 25.8916H56.4706C55.8279 26.4551 55.2644 27.0705 55.2644 27.9819V56.2308C55.2644 57.115 55.8279 57.759 56.4706 58.3211H33.502C34.1187 57.759 34.6808 57.115 34.6808 56.2308V27.9819C34.6808 27.0705 34.1187 26.4551 33.502 25.8916ZM183.403 45.2956H187.074L185.172 40.123L183.403 45.2956Z" fill="#1A1A1A"/>
</svg>
