<svg width="144" height="48" viewBox="0 0 144 48" fill="none" xmlns="http://www.w3.org/2000/svg">
<path d="M9.63664 34.4114V16.6758L4.68066 19.5503V37.1774L16.2446 43.9029V38.2351L9.63664 34.4114Z" fill="black"/>
<path fill-rule="evenodd" clip-rule="evenodd" d="M23.4037 8.67578L11.2891 15.7266V33.4623L16.2451 36.3368V19.3877L22.5777 23.0758V30.1809L17.8971 27.4419V33.1096L23.4037 36.3097L35.5183 29.2588V15.6995L23.4037 8.67578ZM17.1261 18.0046L23.4037 14.3436L29.6812 18.0046L23.4037 21.6656L17.1261 18.0046ZM30.5623 26.4928L24.2297 30.1809V23.0758L30.5623 19.3877V26.4928Z" fill="black"/>
<path d="M101.35 14.6445V29.2886H98.9814V14.6445H101.35Z" fill="black"/>
<path d="M75.083 24.2455C75.083 21.3166 77.2857 18.9844 80.452 18.9844C82.9851 18.9844 85.3253 20.7742 85.6007 23.3505H83.2879C82.9851 22.0488 81.8012 21.1539 80.452 21.1539C78.6348 21.1539 77.4509 22.5098 77.4509 24.2455C77.4509 25.981 78.6073 27.3098 80.452 27.3098C81.8012 27.337 82.9851 26.4149 83.2879 25.1132H85.6007C85.3253 27.7166 82.9851 29.4793 80.452 29.4793C77.2857 29.4793 75.083 27.1472 75.083 24.2455Z" fill="black"/>
<path fill-rule="evenodd" clip-rule="evenodd" d="M65.3082 19.1985V29.2867H62.9404V27.9308C62.0869 28.9342 60.8478 29.5037 59.4987 29.5037C56.6903 29.5037 54.5703 27.3612 54.5703 24.2697C54.5703 21.1782 56.6903 19.0087 59.4987 19.0087C60.8204 18.9816 62.0869 19.551 62.9404 20.5816V19.2257L65.3082 19.1985ZM62.9404 24.2426C62.9404 22.507 61.6739 21.124 59.9393 21.124C58.2047 21.124 57.0208 22.507 57.0208 24.2426C57.0208 25.9782 58.2322 27.3342 59.9393 27.3342C61.6463 27.3342 62.9404 25.9782 62.9404 24.2426Z" fill="black"/>
<path fill-rule="evenodd" clip-rule="evenodd" d="M53.4146 24.2455C53.4146 27.3371 51.2944 29.5066 48.4861 29.5066C47.1645 29.5337 45.898 28.9642 45.072 27.9608V34.1982H42.7041V19.2287H45.072V20.5846C45.9255 19.5812 47.1645 19.0117 48.5136 19.0117C51.322 19.0117 53.4146 21.1541 53.4146 24.2455ZM50.9917 24.2455C50.9917 22.5371 49.7802 21.1541 48.0456 21.1541C46.311 21.1541 45.072 22.51 45.072 24.2455C45.072 25.9812 46.3386 27.3642 48.0732 27.3642C49.8077 27.3642 50.9917 25.9812 50.9917 24.2455Z" fill="black"/>
<path d="M74.6151 21.5066V19.0117C72.8255 19.0117 71.2561 19.6354 70.1823 20.9371V19.2015H67.8145V29.2897H70.1823V25.1676C70.1823 22.5914 71.7517 21.2355 74.6151 21.5066Z" fill="black"/>
<path fill-rule="evenodd" clip-rule="evenodd" d="M89.0147 25.059H96.9722C97.4395 21.4251 95.072 19.0115 91.8782 18.9844C88.8771 18.9844 86.7295 21.3438 86.7295 24.2455C86.7295 27.1472 88.7669 29.4793 92.1535 29.4793C94.3011 29.4793 96.2008 28.1234 96.8619 26.1166H94.5488C94.0532 27.0387 93.1447 27.4725 92.0433 27.4725C90.5565 27.5267 89.2625 26.4963 89.0147 25.059ZM94.6865 23.3234H89.0698C89.3451 21.9403 90.5841 20.9641 91.9883 21.0183C93.3649 20.9912 94.5214 21.9946 94.6865 23.3234Z" fill="black"/>
<path d="M112.527 29.2886V27.1191H106.526V14.6445H104.158V29.2886H112.527Z" fill="black"/>
<path fill-rule="evenodd" clip-rule="evenodd" d="M123.596 19.1985V29.2867H121.228V27.9308C120.375 28.9342 119.136 29.5037 117.786 29.5037C114.978 29.5037 112.858 27.3612 112.858 24.2697C112.858 21.1782 114.978 19.0087 117.786 19.0087C119.109 18.9816 120.375 19.551 121.228 20.5816V19.2257L123.596 19.1985ZM121.201 24.2426C121.201 22.507 119.934 21.124 118.199 21.124C116.465 21.124 115.281 22.507 115.281 24.2426C115.281 25.9782 116.493 27.3342 118.227 27.3342C119.962 27.3342 121.201 25.9782 121.201 24.2426Z" fill="black"/>
<path fill-rule="evenodd" clip-rule="evenodd" d="M131.911 29.5058C134.719 29.5058 136.84 27.3363 136.84 24.2447C136.84 21.1532 134.719 19.0109 131.911 19.038C130.59 19.0109 129.323 19.5804 128.47 20.6108V14.6719H126.102V29.3159H128.47V27.9329C129.295 28.9363 130.563 29.5329 131.911 29.5058ZM131.471 21.1532C133.206 21.1532 134.417 22.5363 134.417 24.2447C134.417 25.9804 133.233 27.3634 131.498 27.3634C129.764 27.3634 128.497 25.9804 128.497 24.2447C128.497 22.5091 129.737 21.1532 131.471 21.1532Z" fill="black"/>
<path fill-rule="evenodd" clip-rule="evenodd" d="M137.804 16.9791H138.162V16.3554H138.327C138.52 16.3554 138.602 16.4368 138.63 16.5995C138.657 16.7893 138.685 16.9249 138.74 16.9791H139.125C139.098 16.9249 139.07 16.8436 139.015 16.5995C138.96 16.3826 138.878 16.2741 138.74 16.2198V16.1927C138.905 16.1384 139.043 16.0029 139.043 15.8402C139.043 15.7045 138.988 15.569 138.905 15.5147C138.795 15.4605 138.657 15.4062 138.382 15.4062C138.135 15.4062 137.941 15.4334 137.804 15.4605V16.9791ZM138.354 16.1114H138.189V15.6774C138.217 15.6503 138.299 15.6504 138.382 15.6504C138.602 15.6504 138.712 15.7588 138.712 15.8944C138.712 16.0571 138.547 16.1114 138.354 16.1114Z" fill="black"/>
<path fill-rule="evenodd" clip-rule="evenodd" d="M138.409 17.7089C139.29 17.7089 139.978 17.0309 139.978 16.1632C139.978 15.3225 139.29 14.6445 138.409 14.6445C137.528 14.6445 136.84 15.3225 136.84 16.1632C136.84 17.0309 137.528 17.7089 138.409 17.7089ZM138.409 17.3835C137.721 17.3835 137.225 16.8411 137.225 16.1632C137.225 15.5123 137.748 14.9428 138.409 14.9428C139.07 14.9428 139.566 15.4852 139.566 16.1632C139.566 16.8411 139.07 17.3835 138.409 17.3835Z" fill="black"/>
</svg>
