<svg width="260" height="57" viewBox="0 0 260 57" fill="none" xmlns="http://www.w3.org/2000/svg">
<g clip-path="url(#clip0_3648_15961)">
<path fill-rule="evenodd" clip-rule="evenodd" d="M39.999 0.518555H29.4869L39.999 21.8172L30.8007 40.2969L11.0907 0.518555H0.578613L27.516 55.3311H34.086L45.2551 32.7797L56.4241 55.3311H62.9944L89.9316 0.518555H79.4195L59.7091 40.6102L39.999 0.518555Z" fill="#1A1A1A"/>
<path fill-rule="evenodd" clip-rule="evenodd" d="M139.863 0.518555L121.795 28.0813L103.728 0.518555H92.5586L117.196 37.7911V55.0179H126.723V37.7911L151.032 0.518555H139.863Z" fill="#1A1A1A"/>
<path fill-rule="evenodd" clip-rule="evenodd" d="M209.834 55.3319H259.767V45.9355H209.834V55.3319Z" fill="#1A1A1A"/>
<path fill-rule="evenodd" clip-rule="evenodd" d="M209.834 9.91502H259.767V0.518555H209.834V9.91502Z" fill="#1A1A1A"/>
<path fill-rule="evenodd" clip-rule="evenodd" d="M209.834 32.4679H259.767V23.0713H209.834V32.4679Z" fill="#1A1A1A"/>
<path fill-rule="evenodd" clip-rule="evenodd" d="M153.989 0.518555V9.60179H186.839L150.046 55.3311H203.593V46.248H169.757L206.877 0.518555H153.989Z" fill="#1A1A1A"/>
</g>
<defs>
<clipPath id="clip0_3648_15961">
<rect width="259.853" height="57" fill="white"/>
</clipPath>
</defs>
</svg>
