<svg width="413" height="206" viewBox="0 0 413 206" fill="none" xmlns="http://www.w3.org/2000/svg">
<g clip-path="url(#clip0_56_1651)">
<g clip-path="url(#clip1_56_1651)">
<path d="M392.085 102.565C392.085 92.5441 383.735 84.1935 373.714 84.1935C363.693 84.1935 355.342 92.5441 355.342 102.565C355.342 107.575 355.342 139.865 355.342 139.865H334.744C334.744 139.865 334.744 113.142 334.744 102.565C334.744 80.8532 352.002 63.5952 373.714 63.5952C395.426 63.5952 412.684 80.8532 412.684 102.565C412.684 113.699 412.684 139.865 412.684 139.865H392.642C392.085 139.865 392.085 107.575 392.085 102.565Z" fill="black"/>
<path d="M247.896 102.565C247.896 80.8532 265.155 63.5952 286.866 63.5952C308.578 63.5952 325.836 80.8532 325.836 102.565C325.836 124.277 308.578 141.535 286.866 141.535C265.711 141.535 247.896 124.277 247.896 102.565ZM286.866 120.936C297.444 120.936 305.794 112.586 305.794 102.008C305.794 91.4307 297.444 83.0801 286.866 83.0801C276.289 83.0801 267.938 91.4307 267.938 102.008C268.495 112.586 276.845 121.493 286.866 120.936C286.866 121.493 286.866 121.493 286.866 120.936Z" fill="black"/>
<path d="M200.02 88.6463C197.237 86.4194 197.793 83.0792 202.804 81.9657C211.711 80.2956 221.175 81.9657 228.969 85.8627L238.99 72.5017C231.196 66.9346 221.732 63.5943 212.268 63.5943C212.268 63.5943 189.999 60.8107 180.535 78.0688C176.082 87.5328 179.422 98.667 188.329 104.234C197.793 110.358 215.051 112.585 220.062 115.368C225.072 118.152 222.845 122.606 216.721 123.719C206.144 124.832 195.566 122.049 187.216 116.482L177.195 129.843C185.546 135.967 195.566 140.42 205.587 141.534C205.587 141.534 226.742 145.431 238.433 130.4C245.114 121.492 244 108.688 235.093 102.007C233.979 100.894 232.309 100.337 231.196 99.7805C220.618 94.2134 205.03 91.9865 200.02 88.6463Z" fill="black"/>
<path d="M103.709 155.452C109.833 159.349 116.514 162.133 123.194 162.69C145.463 163.246 147.133 139.864 147.133 134.297C142.122 138.751 135.442 141.535 128.761 141.535C107.606 141.535 90.3482 124.833 89.7915 103.678V103.122C89.7915 92.544 89.7915 64.7085 89.7915 64.7085H110.39C110.39 64.7085 110.39 98.1111 110.39 103.122C110.39 113.142 118.74 121.493 128.761 121.493C138.782 121.493 147.133 113.142 147.133 103.122C147.133 98.6678 147.133 64.7085 147.133 64.7085H167.731V103.122C167.731 137.081 169.401 171.597 136.555 179.948C121.524 183.288 105.379 179.391 93.1318 169.37L103.709 155.452Z" fill="black"/>
<path d="M79.2137 25.1831H58.6154V63.0394H39.6872C17.9755 63.0394 0.717529 80.2974 0.717529 102.009C0.717529 123.721 17.9755 140.979 39.6872 140.979C61.399 140.979 78.657 123.721 78.657 102.009C78.657 91.4316 78.657 63.0394 78.657 63.0394L79.2137 25.1831ZM58.6154 102.566C58.6154 112.587 50.2647 120.937 39.6872 120.937C29.6665 120.937 21.3158 112.587 21.3158 102.009C21.3158 91.9883 29.6665 83.6377 39.6872 83.6377H58.0587L58.6154 102.566Z" fill="black"/>
</g>
</g>
<defs>
<clipPath id="clip0_56_1651">
<rect width="411.642" height="205.821" fill="white" transform="translate(0.717529 0.154297)"/>
</clipPath>
<clipPath id="clip1_56_1651">
<rect width="411.966" height="155.879" fill="white" transform="translate(0.717529 25.1831)"/>
</clipPath>
</defs>
</svg>
