<svg width="413" height="207" viewBox="0 0 413 207" fill="none" xmlns="http://www.w3.org/2000/svg">
<g clip-path="url(#clip0_56_942)">
<path d="M69.381 100.537C68.0499 97.6722 67.3601 96.1859 66.4283 93.9565C65.5691 96.1859 65.2786 96.8692 63.6571 100.705L60.4865 108.424H72.9631L69.381 100.537ZM56.9045 117.977L52.4511 127.71H39.4421L62.096 80.448H73.072L95.7137 127.71H82.8983L78.0578 117.977H56.9045ZM128.121 100.932C130.772 100.932 131.873 100.765 132.962 100.189C133.814 99.7024 134.522 99.0043 135.019 98.1636C135.516 97.323 135.783 96.3687 135.794 95.3949C135.778 94.422 135.509 93.4696 135.013 92.6297C134.517 91.7898 133.81 91.0909 132.962 90.6004C131.921 90.025 130.82 89.9052 128.121 89.9052H112.232V100.837L128.121 100.932ZM112.232 127.71H100.276V80.448H131.413C136.955 80.448 139.957 81.1432 142.788 82.8453C144.587 83.9751 146.065 85.5391 147.086 87.3905C148.106 89.2419 148.634 91.3199 148.621 93.4291C148.621 99.0387 145.681 103.21 140.308 105.415C145.039 107.081 146.491 109.706 146.6 117.09C146.83 122.987 147.181 124.701 148.621 127.734H135.455C134.584 125.097 134.414 124.018 134.535 119.487C134.535 112.631 132.623 110.509 126.5 110.509H112.232V127.71ZM204.53 127.71V80.448H248.192V90.037H216.486V98.9068H244.501V108.496H216.486V118.229H248.192V127.818L204.53 127.71ZM282.85 127.71H270.894V90.0011H254.376V80.4121H299.308V90.0011H282.85V127.71ZM357.879 109.227C354.467 122.675 345.173 129.424 329.755 129.424C312.196 129.424 301.099 119.751 301.099 104.54C301.099 88.9583 312.535 78.7939 330.034 78.7939C338.42 78.7939 345.003 80.9635 350.195 85.6021C353.724 88.5105 356.183 92.4927 357.189 96.9291H344.301C341.881 90.936 337.149 87.9994 329.985 87.9994C320.389 87.9994 313.757 94.6997 313.757 104.313C313.757 113.686 320.34 120.218 329.755 120.218C337.379 120.218 341.942 116.838 344.713 109.227H357.879ZM400.452 80.448V98.8709H375.862V80.448H363.906V127.71H375.862V108.424H400.416V127.71H412.36V80.448H400.452ZM0.717529 127.71V80.448H42.5885V90.037H12.6737V98.9068H40.1077V108.496H12.6737V127.71H0.717529ZM156.475 127.71V80.448H198.358V90.037H168.431V98.9068H195.926V108.496H168.431V127.71H156.475Z" fill="#1A1A1A"/>
</g>
<defs>
<clipPath id="clip0_56_942">
<rect width="411.642" height="205.821" fill="white" transform="translate(0.717529 0.261719)"/>
</clipPath>
</defs>
</svg>
