<svg width="417" height="76" viewBox="0 0 417 76" fill="none" xmlns="http://www.w3.org/2000/svg">
<mask id="mask0_56_1554" style="mask-type:luminance" maskUnits="userSpaceOnUse" x="86" y="8" width="331" height="61">
<path d="M86.0984 8.96338H416.876V68.7426H86.0984V8.96338Z" fill="white"/>
</mask>
<g mask="url(#mask0_56_1554)">
<path d="M97.5899 42.8223H117.215V67.9714H128.707V9.72058H117.215V32.8591H97.5899V9.72058H86.0984V67.9714H97.5899V42.8223ZM138.312 67.9714H173.619V58.0222H149.803V42.8243H171.148V32.8611H149.803V19.7695H173.619V9.72257H138.31L138.312 67.9714ZM191.19 67.9714L201.946 48.1446L212.772 67.9714H225.167L209.164 37.9264L223.445 9.72058H211.051L201.946 28.292L192.912 9.72058H180.434L194.633 37.9264L178.712 67.9714H191.19ZM248.706 18.9266C254.257 18.9266 257.408 22.3101 258.42 27.7898H269.413C267.524 15.0449 259.892 8.96338 248.594 8.96338C235.867 8.96338 226.914 16.7287 226.914 34.6565V42.9359C226.914 60.7501 235.867 68.629 248.594 68.629C260.253 68.629 267.387 62.9181 269.274 49.8005H258.42C257.184 55.7107 254.395 58.6658 248.706 58.6658C242.056 58.6658 238.517 53.6842 238.517 42.8781V34.5987C238.462 23.5794 242.002 18.9266 248.706 18.9266ZM277.475 9.72058V67.9714H312.769V58.0222H288.967V9.72257L277.475 9.72058ZM355.78 67.9873H368.063L348.356 9.72058H337.364L317.655 67.9854H329.966L333.367 56.9242H352.325L355.78 67.9873ZM336.42 46.961L342.818 26.5205L349.216 47.0327L336.42 46.961ZM395.115 9.72058H375.003V67.9854H395.115C407.926 67.9854 416.863 61.1506 416.863 42.6509V35.0849C416.863 16.5294 407.926 9.72058 395.115 9.72058ZM405.371 42.6509C405.371 52.642 402.749 58.0222 395.115 58.0222H386.495V19.7695H395.115C402.749 19.7695 405.371 25.0081 405.371 35.057V42.6489V42.6509Z" fill="#1A1A1A"/>
</g>
<mask id="mask1_56_1554" style="mask-type:luminance" maskUnits="userSpaceOnUse" x="0" y="0" width="69" height="76">
<path d="M0.416748 0.256348H68.1665V75.9766H0.416748V0.256348Z" fill="white"/>
</mask>
<g mask="url(#mask1_56_1554)">
<path d="M0.416748 19.1884V57.0545L34.2916 75.9866L68.1665 57.0545V19.1864L34.2916 0.256348L0.416748 19.1884ZM61.8498 53.5256L34.2916 68.9087L6.73341 53.5256V22.7592L34.2916 7.37206L61.8498 22.7552V53.5256Z" fill="#1A1A1A"/>
<path d="M24.8346 33.9617H17.402V19.5211L9.16846 24.1161V52.1964L17.402 56.8014V42.1873H24.8346V60.954L33.0682 65.559V10.7515L24.8346 15.3565V33.9617ZM59.4168 52.1964V43.899L43.8742 52.033V23.9607L59.4168 32.6087V24.1161L41.8099 14.2804L35.5131 10.7535V65.559L41.7142 62.0918L59.4148 52.1944L59.4168 52.1964Z" fill="#1A1A1A"/>
</g>
</svg>
