<svg width="391" height="197" viewBox="0 0 391 197" fill="none" xmlns="http://www.w3.org/2000/svg">
<path d="M27.9398 78.84V93.9313H12.2951V78.84H0V119.107H12.2951V102.986H27.9398V119.107H40.2349V78.84H27.9398ZM70.9333 120.101C60.8844 120.066 50.8355 114.065 50.8355 101.992V78.84H63.1306V102.986C63.1306 108.028 67.6231 110.017 70.9727 110.017C74.3223 110.017 78.8148 107.993 78.8148 102.986V78.84H91.031V101.992C91.031 114.065 80.9822 120.137 70.9333 120.101ZM122.321 120.101C109.474 120.101 98.8731 111.047 98.8731 98.9735C98.8731 86.9005 109.474 77.8457 122.321 77.8457C131.266 77.8457 136.822 81.8582 136.822 81.8582L129.847 89.6702C129.847 89.6702 127.325 87.6462 122.321 87.6462C115.621 87.6462 110.892 92.937 110.892 98.9735C110.892 105.01 115.621 110.052 122.321 110.052C127.916 110.052 130.714 108.028 130.714 108.028V102.986H121.217V94.1798H141.315V113.071C141.315 113.071 135.167 120.101 122.321 120.101ZM172.053 87.8947C165.353 87.8947 160.624 92.937 160.624 98.9735C160.624 105.01 165.353 110.052 172.053 110.052C178.752 110.052 183.481 105.01 183.481 98.9735C183.481 92.937 178.752 87.8947 172.053 87.8947ZM172.053 120.101C159.206 120.101 148.605 111.047 148.605 98.9735C148.605 86.9005 159.206 77.8457 172.053 77.8457C184.899 77.8457 195.5 86.9005 195.5 98.9735C195.5 111.047 184.899 120.101 172.053 120.101ZM289.881 87.8947C283.181 87.8947 278.453 92.937 278.453 98.9735C278.453 105.01 283.181 110.052 289.881 110.052C296.58 110.052 301.309 105.01 301.309 98.9735C301.348 92.937 296.58 87.8947 289.881 87.8947ZM289.881 120.101C277.034 120.101 266.433 111.047 266.433 98.9735C266.433 86.9005 277.034 77.8457 289.881 77.8457C302.727 77.8457 313.328 86.9005 313.328 98.9735C313.328 111.047 302.727 120.101 289.881 120.101ZM339.613 107.531C339.613 109.023 337.958 110.301 335.16 110.301C329.012 110.301 325.111 106.537 325.111 106.537L318.412 114.598C318.412 114.598 324.007 120.137 335.16 120.137C344.105 120.137 351.908 115.095 351.908 107.567C351.908 95.4937 330.667 94.4639 330.667 90.4514C330.667 88.96 332.914 87.6817 336.263 87.6817C340.716 87.6817 343.238 89.7057 343.238 89.7057L349.662 81.8937C349.662 81.8937 344.066 77.8812 335.16 77.8812C326.766 77.8812 319.515 83.4206 319.515 90.4514C319.476 102.489 339.613 102.986 339.613 107.531ZM254.138 96.9495C256.109 94.677 256.936 92.4399 256.936 89.9188C256.936 83.7757 251.419 78.84 244.641 78.84H223.44V119.107H246.611C254.178 119.107 260.286 113.568 260.286 106.786C260.286 102.56 258.04 98.9736 254.138 96.9495ZM234.868 87.6462H241.843C244.01 87.6462 245.744 89.2086 245.744 91.1616C245.744 93.1146 244.01 94.677 241.843 94.677H234.868V87.6462ZM244.089 110.052H234.868V102.489H244.089C246.414 102.489 248.266 104.193 248.266 106.253C248.266 108.348 246.414 110.052 244.089 110.052ZM378.705 107.531C378.705 109.023 377.05 110.301 374.252 110.301C368.104 110.301 364.203 106.537 364.203 106.537L357.504 114.598C357.504 114.598 363.1 120.137 374.252 120.137C383.197 120.137 391 115.095 391 107.567C391 95.4937 369.759 94.4639 369.759 90.4514C369.759 88.96 372.006 87.6817 375.355 87.6817C379.808 87.6817 382.33 89.7057 382.33 89.7057L388.754 81.8937C388.754 81.8937 383.158 77.8812 374.252 77.8812C365.858 77.8812 358.607 83.4206 358.607 90.4514C358.568 102.489 378.705 102.986 378.705 107.531Z" fill="#1A1A1A"/>
</svg>
