<svg width="535" height="268" viewBox="0 0 535 268" fill="none" xmlns="http://www.w3.org/2000/svg">
<g clip-path="url(#clip0_56_1525)">
<g clip-path="url(#clip1_56_1525)">
<path fill-rule="evenodd" clip-rule="evenodd" d="M64.6109 89.4689C59.7462 89.4689 55.7456 91.0085 52.6169 94.0841C49.4846 97.1633 47.9166 101.092 47.9166 105.87C47.9166 110.506 49.4879 114.364 52.6308 117.443C55.7737 120.519 59.7042 122.058 64.429 122.058C69.1714 122.058 73.1297 120.49 76.3007 117.348C79.4714 114.212 81.0569 110.304 81.0569 105.626C81.0569 101.071 79.4714 97.2376 76.3007 94.1301C73.1297 91.0226 69.2309 89.4689 64.6109 89.4689ZM64.3659 83.6221C70.9351 83.6221 76.4055 85.7244 80.7735 89.929C85.1412 94.1372 87.3288 99.4107 87.3288 105.749C87.3288 112.088 85.1237 117.333 80.714 121.488C76.304 125.644 70.7427 127.721 64.03 127.721C57.6251 127.721 52.2879 125.644 48.0214 121.488C43.7552 117.333 41.6202 112.127 41.6202 105.87C41.6202 99.4496 43.7691 94.1372 48.067 89.929C52.3649 85.7244 57.7967 83.6221 64.3659 83.6221ZM14.5847 84.2273H8.49838V120.303C8.49838 123.831 8.29188 126.309 7.7284 127.381C7.28042 128.461 6.51045 129.211 5.41848 129.639C4.10621 130.183 2.67164 130.18 1.26653 130.176H1.26358H1.26065H1.25773C1.00211 130.175 0.746883 130.175 0.494141 130.177C0.494141 130.177 6.03447 135.805 6.13945 135.89C8.21838 135.469 9.98234 134.495 11.4208 132.963C14.3537 129.76 14.5847 125.141 14.5847 121.014V84.2273ZM111.758 179.258C112.965 181.926 118.096 181.116 120.385 178.472C119.174 177.134 115.174 172.735 115.174 172.735C113.014 174.034 110.327 176.097 111.758 179.258ZM119.223 163.922C118.996 162.585 117.746 161.76 116.224 161.802C114.719 161.841 113.431 162.762 113.424 164.156C113.42 164.942 113.718 165.71 114.096 166.379C114.54 167.168 115.181 167.954 115.975 168.676C116.735 168.184 117.347 167.702 117.834 167.232C118.709 166.372 119.447 165.211 119.223 163.922ZM127.686 171.001C127.451 172.335 126.076 175.988 124.567 177.959L129.796 183.633H125.302L122.52 180.677C120.186 182.868 117.344 184.139 113.924 183.87C109.759 183.551 108.111 180.865 107.775 178.766C107.268 175.584 108.636 173.645 110.743 171.882C111.208 171.489 112.528 170.608 113.088 170.293C111.18 168.085 110.179 166.524 110.04 164.514C109.92 162.801 110.54 161.406 111.66 160.337C112.78 159.268 114.26 158.734 116.094 158.734C117.897 158.734 119.388 159.258 120.574 160.305C121.761 161.349 122.373 162.68 122.415 164.305C122.485 167.087 120.252 169.479 118.04 170.781L122.534 175.743C123.511 174.123 124.302 172.045 124.613 171.004C124.613 171.004 127.238 171.001 127.686 171.001ZM151.342 84.2326H145.255V102.955H120.389V84.2326H114.302V127.224H120.389V108.515H145.255V127.224H151.342V84.2326ZM217.008 84.2326H222.79V127.224H217.558L187.851 94.1142V127.224H182.128V84.2326H187.06L217.008 117.625V84.2326ZM275.758 127.222V84.2308H281.864V121.676H301.811V127.222H275.758ZM330.529 84.2308V127.222H357.955V121.676H336.635V108.312H356.775V102.766H336.635V89.7733H357.401V84.2308H330.529ZM430.804 113.858L442.408 84.2308H448.447L431.183 127.604H430.003L416.031 92.4242L401.941 127.604H400.761L383.559 84.2308H389.665L401.387 113.858L413.166 84.2308H418.958L430.804 113.858ZM474.664 127.227H480.776V84.2358H474.664V127.227ZM517.195 106.39L521.817 109.232C525.548 111.582 527.472 114.063 527.472 116.679C527.472 118.296 526.782 119.638 525.517 120.71C524.247 121.782 522.662 122.232 520.753 122.232C516.432 122.232 512.63 120.218 509.345 116.006V123.821C512.872 126.525 516.623 127.703 520.812 127.781C524.463 127.845 527.397 126.698 529.678 124.546C531.96 122.391 533.135 119.553 533.135 116.105C533.135 111.264 530.721 107.278 525.537 104.146L520.712 101.364C518.625 100.129 516.953 98.8125 516.007 97.6871C515.07 96.5616 514.758 95.4927 514.758 94.2044C514.758 92.7569 515.399 91.5358 516.677 90.6086C517.953 89.6777 519.586 89.2141 521.575 89.2141C525.105 89.2141 528.4 90.7041 531.463 93.6806V86.6977C528.503 84.6803 525.607 83.6752 521.696 83.6752C517.986 83.6752 514.887 84.6945 512.563 86.8074C510.239 88.9203 509.082 91.6703 509.082 95.0539C509.082 97.3119 509.767 99.4284 511.135 101.148C512.46 102.812 514.294 104.599 517.195 106.39ZM176.617 161.657H172.872V169.525H176.831C179.505 169.525 181.353 168.315 181.353 165.526C181.353 162.946 179.774 161.657 176.617 161.657ZM169.296 183.633V158.454H177.24C179.613 158.454 181.507 159.098 182.917 160.397C184.331 161.693 185.038 163.434 185.038 165.618C185.038 167.079 184.713 168.421 183.981 169.546C183.295 170.597 182.245 171.472 180.978 171.96C179.452 172.547 178.052 172.735 175.567 172.728H172.872V183.633H169.296ZM207.809 163.87L211.82 172.98H204.088L207.809 163.87ZM209.09 158.345H206.587L195.909 183.633H199.566L202.674 176.183H213.283L216.597 183.633H220.24L209.09 158.345ZM266.594 158.453H287.463V161.656H278.822V183.632H275.243V161.656H266.594V158.453ZM327.301 158.488H323.921V178.021L307.025 158.488H304.142V183.631H307.489V164.271L324.238 183.631H327.301V158.488ZM346.178 158.488H360.271V161.691H349.736V169.361H359.918V172.581H349.736V180.392H360.614V183.599H346.178V158.488ZM239.771 161.55H240.839C242.585 161.55 243.831 161.684 244.587 161.943C246.103 162.47 246.971 163.89 246.964 165.457C246.953 166.951 246.274 168.352 244.836 169.018C244.164 169.329 242.928 169.485 241.126 169.485H239.771V161.55ZM236.139 158.488V183.632H239.698V172.688H240.625C241.791 172.688 242.687 172.826 243.18 173.095C243.674 173.364 244.157 173.771 244.769 174.383C245.378 174.996 246.054 175.849 246.789 176.882L248.119 178.843L249.914 181.671C250.019 181.816 251.163 183.632 251.163 183.632H255.447L254.128 181.833C253.607 181.112 252.875 180.043 252.007 178.613C250.632 176.344 249.603 174.752 248.843 173.842C248.084 172.932 247.307 172.214 246.512 171.683C247.863 171.155 248.836 170.356 249.561 169.29C250.285 168.221 250.649 166.954 250.649 165.489C250.649 163.344 249.907 161.639 248.43 160.379C246.953 159.119 244.958 158.488 242.442 158.488H236.139ZM382.642 161.55H381.572V169.485H382.925C384.731 169.485 385.965 169.329 386.638 169.018C388.075 168.352 388.755 166.951 388.766 165.457C388.773 163.89 387.9 162.47 386.39 161.943C385.633 161.684 384.388 161.55 382.642 161.55ZM377.94 183.632V158.488H384.244C386.756 158.488 388.755 159.119 390.232 160.379C391.708 161.639 392.447 163.344 392.447 165.489C392.447 166.954 392.087 168.221 391.363 169.29C390.639 170.356 389.665 171.155 388.315 171.683C389.108 172.214 389.886 172.932 390.644 173.842C391.404 174.752 392.434 176.344 393.81 178.613C394.676 180.043 395.408 181.112 395.931 181.833L397.247 183.632H392.965C392.965 183.632 391.821 181.816 391.713 181.671L389.917 178.843L388.59 176.882C387.856 175.849 387.181 174.996 386.568 174.383C385.955 173.771 385.476 173.364 384.984 173.095C384.489 172.826 383.59 172.688 382.428 172.688H381.5V183.632H377.94ZM416.846 171.434L419.551 173.098C421.735 174.474 422.828 175.925 422.828 177.451C422.828 178.399 422.457 179.185 421.715 179.812C420.973 180.438 420.045 180.753 418.93 180.753C416.402 180.753 414.176 179.521 412.254 177.058V181.631C414.269 183.16 416.508 183.924 418.963 183.924C421.099 183.924 422.836 183.294 424.168 182.031C425.505 180.771 426.175 179.132 426.175 177.118C426.175 174.287 424.655 171.954 421.625 170.121L418.904 168.497C417.683 167.771 416.797 167.084 416.248 166.423C415.694 165.768 415.421 165.06 415.421 164.31C415.421 163.46 415.797 162.763 416.544 162.221C417.291 161.676 418.247 161.404 419.409 161.404C421.473 161.404 423.402 162.274 425.193 164.019V159.932C423.462 158.753 421.558 158.165 419.479 158.165C417.309 158.165 415.542 158.785 414.184 160.02C412.824 161.255 412.146 162.862 412.146 164.844C412.146 166.164 412.507 167.329 413.223 168.341C413.942 169.357 415.148 170.386 416.846 171.434Z" fill="black"/>
</g>
</g>
<defs>
<clipPath id="clip0_56_1525">
<rect width="533.973" height="266.986" fill="white" transform="translate(0.494141 0.154297)"/>
</clipPath>
<clipPath id="clip1_56_1525">
<rect width="533.308" height="100.478" fill="white" transform="translate(0.494141 83.6221)"/>
</clipPath>
</defs>
</svg>
