<svg width="413" height="207" viewBox="0 0 413 207" fill="none" xmlns="http://www.w3.org/2000/svg">
<g clip-path="url(#clip0_56_1600)">
<path fill-rule="evenodd" clip-rule="evenodd" d="M222.35 1.52284C221.011 1.72254 219.713 6.68432 217.117 9.24978C215.214 11.1034 212.843 10.9908 211.571 13.29C211.099 14.14 211.253 15.6148 210.694 17.023C209.621 19.8342 205.886 20.0954 205.886 23.1678C205.886 26.4911 208.995 27.1209 211.724 29.4661C213.849 31.3608 214.049 32.6564 216.624 33.5627C218.815 34.3001 222.084 31.8626 225.013 32.7587C227.43 33.4756 229.739 33.9877 230.272 36.4661C230.744 38.7448 230.226 42.2729 227.322 41.8684C223.902 40.9623 220.354 40.63 216.825 40.8852C210.493 41.6021 203.269 43.6762 202.572 50.7118C202.626 51.8332 202.913 52.9311 203.416 53.9359C203.918 54.9408 204.624 55.8302 205.489 56.5484C206.354 57.2661 207.359 57.7967 208.44 58.1062C209.522 58.4161 210.656 58.4977 211.771 58.3468C215.034 57.7016 213.495 53.8813 215.26 52.0074C217.589 49.616 230.765 60.3337 243.002 60.3337C245.4 60.4719 247.8 60.0682 250.021 59.1522C252.242 58.2367 254.227 56.8322 255.828 55.0439C256.187 54.7316 256.608 54.0864 257.173 54.0199C257.787 54.1647 258.37 54.4216 258.891 54.7776C268.758 62.6839 276.207 78.558 312.476 78.7627C318.343 79.0649 323.904 81.4665 328.14 85.527C332.321 90.181 335.43 95.6918 337.248 101.673C341.925 112.339 348.722 121.948 357.226 129.918C357.74 130.43 365.887 136.754 366.533 137.22C366.922 137.914 367.101 138.706 367.047 139.499C366.801 145.506 365.928 162.946 378.97 163.75C382.147 163.904 381.32 161.672 381.32 160.13C380.875 157.032 381.237 153.871 382.372 150.954C384.563 146.688 377.718 144.701 377.919 135.459C378.078 128.556 372.275 129.739 369.304 124.49C367.399 122.102 366.31 119.168 366.195 116.118C366.867 95.149 361.721 81.3947 359.171 77.9997C357.18 75.4394 355.523 74.4154 357.36 73.2425C363.068 70.0388 367.707 65.2311 370.7 59.4169C376.492 45.8372 381.684 33.4449 388.868 27.9966C391.204 26.1388 393.689 24.4743 396.297 23.0193C400.667 21.2986 404.766 18.9581 408.465 16.0705C411.544 13.08 413.971 6.85336 411.031 3.05382C407.364 -1.6111 401.033 2.0963 398.236 3.74515C378.227 15.579 375.302 36.4815 368.365 48.4741C362.839 58.0548 353.845 65.1112 345.79 65.6899C339.264 66.0602 332.746 64.8294 326.806 62.1052C317.121 57.8232 308.215 51.9678 300.45 44.7769C296.222 41.5152 263.442 9.38297 236.886 8.08744C236.886 8.08744 233.597 1.50235 232.745 1.38969C230.801 1.14391 228.81 5.31717 227.399 5.81384C225.988 6.31056 223.751 1.30265 222.386 1.52284" fill="#1A1A1A"/>
<path fill-rule="evenodd" clip-rule="evenodd" d="M105.402 193.25C104.181 193.217 103.02 192.716 102.161 191.851C101.3 190.986 100.807 189.824 100.784 188.606V105.897H73.4889V197.07C73.486 199.213 74.3347 201.269 75.8481 202.789C77.3619 204.308 79.4177 205.166 81.5644 205.176H129.311C130.373 205.173 131.425 204.96 132.405 204.551C133.385 204.142 134.275 203.543 135.023 202.791C135.771 202.037 136.363 201.145 136.765 200.163C137.167 199.181 137.371 198.131 137.366 197.07V105.922H110.066V188.631C110.047 189.848 109.555 191.009 108.693 191.87C107.831 192.73 106.667 193.221 105.448 193.24" fill="#1A1A1A"/>
<path fill-rule="evenodd" clip-rule="evenodd" d="M196.846 105.918H155.528C154.359 105.92 153.201 106.152 152.121 106.601C151.041 107.05 150.06 107.707 149.235 108.535C148.41 109.362 147.756 110.344 147.311 111.424C146.866 112.504 146.639 113.661 146.642 114.828V205.182H173.999V122.284C173.99 121.057 174.47 119.878 175.333 119.004C176.195 118.131 177.37 117.636 178.599 117.627C179.828 117.618 181.009 118.096 181.885 118.957C182.76 119.818 183.256 120.991 183.265 122.217V205.172H210.494V122.227C210.503 121.002 210.999 119.83 211.874 118.969C212.749 118.109 213.93 117.631 215.158 117.639C216.386 117.648 217.56 118.143 218.422 119.016C219.284 119.889 219.764 121.068 219.755 122.294V205.182H247.096V114.808C247.101 113.64 246.874 112.483 246.43 111.403C245.985 110.323 245.332 109.341 244.507 108.513C243.682 107.685 242.702 107.027 241.622 106.578C240.543 106.128 239.385 105.895 238.215 105.893H196.867L196.846 105.918Z" fill="#1A1A1A"/>
<path fill-rule="evenodd" clip-rule="evenodd" d="M55.2644 180.254H27.6764V205.181H0.381104V105.917H55.4438C56.6081 105.924 57.7594 106.161 58.8315 106.614C59.9037 107.068 60.8751 107.729 61.6895 108.56C62.5039 109.39 63.145 110.373 63.5764 111.453C64.0075 112.532 64.2204 113.686 64.202 114.848V171.298C64.2049 172.473 63.9753 173.637 63.5267 174.723C63.0785 175.809 62.4199 176.796 61.5887 177.628C60.7576 178.46 59.7703 179.12 58.6835 179.57C57.5963 180.021 56.4311 180.253 55.2542 180.254H55.2644ZM36.9271 122.462C36.936 121.849 36.8234 121.24 36.596 120.67C36.3686 120.1 36.0307 119.58 35.6018 119.14C35.1729 118.701 34.6613 118.35 34.0963 118.108C33.5314 117.866 32.9242 117.738 32.3095 117.731H27.6919V167.949H32.3095C33.5414 167.941 34.7198 167.445 35.5856 166.57C36.4514 165.696 36.934 164.514 36.9271 163.284V122.462Z" fill="#1A1A1A"/>
<path fill-rule="evenodd" clip-rule="evenodd" d="M353.06 193.43C353.048 195.825 352.327 198.162 350.988 200.15C349.649 202.136 347.752 203.685 345.534 204.599C343.316 205.513 340.877 205.753 338.523 205.288C336.169 204.824 334.005 203.675 332.304 201.987C330.601 200.299 329.437 198.147 328.957 195.8C328.477 193.454 328.702 191.018 329.604 188.799C330.506 186.58 332.045 184.677 334.027 183.328C336.01 181.979 338.348 181.244 340.747 181.217C342.362 181.201 343.964 181.506 345.46 182.114C346.956 182.721 348.316 183.619 349.462 184.755C350.607 185.891 351.515 187.243 352.133 188.732C352.751 190.221 353.066 191.818 353.06 193.43ZM340.778 182.999C338.064 183.023 335.47 184.119 333.564 186.046C331.658 187.974 330.595 190.577 330.606 193.285C330.618 195.994 331.705 198.587 333.627 200.498C335.551 202.408 338.154 203.481 340.867 203.481C343.581 203.481 346.184 202.408 348.108 200.498C350.03 198.587 351.117 195.994 351.129 193.285C351.14 190.577 350.077 187.974 348.171 186.046C346.265 184.119 343.671 183.023 340.957 182.999H340.778Z" fill="#1A1A1A"/>
<path fill-rule="evenodd" clip-rule="evenodd" d="M346.642 200.507H343.374L339.208 194.94V200.501H336.55V186.44H339.347C343.148 186.44 345.16 187.869 345.16 190.613C345.17 191.492 344.897 192.35 344.382 193.062C343.866 193.773 343.135 194.301 342.297 194.566L342.097 194.633L346.642 200.507ZM339.659 192.646C341.563 192.646 342.568 191.975 342.568 190.639C342.568 189.43 341.604 188.831 339.747 188.831H339.234V192.646H339.659Z" fill="#1A1A1A"/>
<path fill-rule="evenodd" clip-rule="evenodd" d="M292.898 205.182V180.26H283.612V205.182H256.337V114.808C256.333 113.64 256.561 112.483 257.006 111.403C257.45 110.323 258.104 109.34 258.929 108.512C259.754 107.684 260.735 107.027 261.815 106.577C262.895 106.128 264.053 105.895 265.223 105.893H311.312C312.482 105.895 313.64 106.128 314.72 106.578C315.799 107.027 316.78 107.685 317.604 108.513C318.429 109.341 319.083 110.323 319.527 111.403C319.971 112.483 320.198 113.64 320.193 114.808V205.182H292.898ZM292.898 167.96V122.248C292.894 121.639 292.769 121.037 292.532 120.477C292.295 119.916 291.949 119.408 291.515 118.981C291.08 118.553 290.566 118.216 290.001 117.987C289.436 117.758 288.831 117.642 288.221 117.647C287.612 117.651 287.009 117.775 286.447 118.012C285.886 118.249 285.376 118.594 284.948 119.028C284.52 119.461 284.182 119.974 283.952 120.538C283.723 121.102 283.607 121.706 283.612 122.314V167.96H292.898Z" fill="#1A1A1A"/>
</g>
<defs>
<clipPath id="clip0_56_1600">
<rect width="411.642" height="205.821" fill="white" transform="translate(0.717529 0.78418)"/>
</clipPath>
</defs>
</svg>
