<svg width="544" height="272" viewBox="0 0 544 272" fill="none" xmlns="http://www.w3.org/2000/svg">
<g clip-path="url(#clip0_56_1501)">
<path d="M0 92.1853C4.59633 92.3358 9.19267 92.4804 13.789 92.625V191.364C19.4701 191.118 25.1453 190.884 30.8264 190.661V93.1399L44.6154 93.5304V78.8013C29.7417 78.2488 14.8708 77.6327 0 76.9674V92.1853ZM96.3899 147.269C96.3899 140.957 93.6304 135.704 86.9774 132.977C93.1444 131.016 96.3899 126.072 96.3899 119.908V99.1594C96.3899 87.4444 89.0861 80.3315 75.6153 79.8831C67.3396 79.6141 59.0639 79.3278 50.7911 79.0298V189.909C56.4692 189.706 62.1474 189.51 67.8284 189.322V139.974L72.0458 139.965C77.2381 139.954 79.3496 142.525 79.3496 147.683V175C79.3496 180.464 79.6736 185.616 81.1344 188.905C86.8125 188.731 92.4936 188.569 98.1775 188.413C96.7139 185 96.3928 179.744 96.3928 174.182L96.3899 147.269ZM79.3496 119.76C79.3496 124.013 77.4029 126.275 73.6686 126.257L67.8256 126.228V93.6779L73.6686 93.8226C77.4 93.9151 79.3496 96.2379 79.3496 100.484V119.76ZM132.258 168.22C132.258 172.356 130.149 175.052 126.415 175.119C122.684 175.185 120.734 172.545 120.734 168.385V81.1819C115.053 81.0402 109.372 80.8927 103.694 80.7336V170.447C103.694 182.154 113.109 189.229 126.418 188.902C139.892 188.578 149.304 181.211 149.307 169.771V81.8183C143.623 81.7026 137.945 81.5811 132.261 81.4509L132.258 168.22ZM157.427 187.088C169.547 186.877 181.667 186.701 193.786 186.556V172.79C187.298 172.848 180.802 172.909 174.311 172.978V139.491L191.03 139.479V125.711L174.311 125.661V96.1048C180.805 96.1829 187.298 96.2494 193.789 96.3131V82.553C181.669 82.3968 169.544 82.2059 157.427 81.9745V187.088ZM246.643 82.0381C233.331 81.9774 224.075 88.9485 224.075 100.189V169.313C224.075 180.554 233.331 187.534 246.643 187.479C260.119 187.427 268.56 180.398 268.56 169.204V146.1C263.041 146.1 257.519 146.1 252 146.106V167.503C252 171.523 250.212 174.109 246.481 174.118C242.747 174.13 241.124 171.549 241.124 167.526V101.988C241.124 97.9676 242.744 95.3875 246.481 95.399C250.212 95.4106 252 97.9966 252 102.017V121.837C257.519 121.843 263.041 121.846 268.56 121.846V100.316C268.56 89.1221 260.114 82.0989 246.643 82.041V82.0381ZM293.402 82.4865C287.776 82.5067 282.149 82.5183 276.52 82.5241V186.941C288.805 186.95 301.087 186.993 313.369 187.068V173.216C306.713 173.187 300.057 173.164 293.402 173.149V82.4865ZM393.529 80.8493C380.22 81.1327 371.452 88.4047 371.452 99.7611V116.226C371.452 124.238 374.536 128.158 379.404 132.092C384.547 136.468 389.687 140.862 394.828 145.282C397.746 148.088 398.721 149.852 398.721 154.561V168.388C398.721 172.507 397.101 174.98 393.364 174.925C389.632 174.867 388.007 172.362 388.007 168.258V146.873L371.45 146.815V169.69C371.45 181.046 379.89 188.309 393.364 188.578C406.676 188.847 415.764 181.809 415.764 170.239V150.836C415.764 142.693 412.684 138.681 407.812 134.701C402.672 130.275 397.529 125.878 392.392 121.51C389.47 118.734 388.496 116.986 388.499 112.298V101.167C388.499 97.0652 390.121 94.5544 393.853 94.4965C397.587 94.4387 399.213 96.9118 399.213 101.028V120.738C404.732 120.709 410.248 120.669 415.767 120.634V99.1623C415.767 87.5919 407.002 80.5629 393.529 80.8522V80.8493ZM444.013 79.6083C430.707 80.0104 421.94 87.4936 421.94 99.061V115.838C421.94 124.004 425.023 127.996 429.894 132.011C435.052 136.486 440.192 140.981 445.315 145.496C448.234 148.365 449.208 150.182 449.208 154.995V169.14C449.208 173.354 447.586 175.88 443.854 175.799C440.123 175.721 438.5 173.149 438.5 168.958V147.104C432.981 147.072 427.465 147.043 421.943 147.017V170.332C421.943 181.896 430.383 189.365 443.854 189.753C457.16 190.146 466.252 183.001 466.252 171.124V151.223C466.252 142.869 463.168 138.753 458.3 134.672C453.178 130.155 448.039 125.658 442.882 121.181C439.958 118.355 438.983 116.567 438.983 111.78V100.403C438.983 96.2147 440.609 93.6345 444.337 93.5507C448.074 93.4697 449.694 95.992 449.694 100.204V120.377C455.213 120.333 460.73 120.284 466.249 120.238V98.2135C466.249 86.3423 457.484 79.1976 444.013 79.6055V79.6083ZM473.876 189.452C479.61 189.637 485.346 189.831 491.076 190.036V79.1397C485.346 79.3451 479.61 79.5447 473.876 79.7356V189.452ZM543.805 120.258V96.2321C543.805 83.7043 535.37 76.2529 521.905 76.8459C508.602 77.4331 499.351 85.3762 499.351 97.4441V171.882C499.351 183.95 508.602 191.893 521.905 192.486C535.37 193.088 543.805 185.645 543.805 173.117V147.33C538.289 147.272 532.773 147.214 527.259 147.162V170.728C527.259 175.159 525.472 177.945 521.743 177.823C518.012 177.702 516.389 174.83 516.389 170.442V98.8846C516.389 94.4936 518.012 91.6242 521.743 91.5056C525.472 91.387 527.259 94.1726 527.259 98.604V120.432L543.805 120.258ZM341.508 82.0121C328.035 82.177 318.616 89.313 318.619 100.565V187.002C324.303 187.039 329.987 187.088 335.668 187.141V162.154C339.512 162.172 343.351 162.192 347.195 162.215V187.265C352.876 187.326 358.56 187.398 364.244 187.479V100.207C364.244 88.827 354.826 81.8472 341.514 82.0121H341.508ZM335.665 149.511V102.191C335.665 98.1412 337.777 95.5205 341.508 95.4858C345.243 95.4511 347.192 98.04 347.192 102.101V149.534L335.665 149.505V149.511Z" fill="#1A1A1A"/>
</g>
<defs>
<clipPath id="clip0_56_1501">
<rect width="543.805" height="271.902" fill="white" transform="translate(0 0.0976562)"/>
</clipPath>
</defs>
</svg>
