<svg width="413" height="206" viewBox="0 0 413 206" fill="none" xmlns="http://www.w3.org/2000/svg">
<g clip-path="url(#clip0_56_1676)">
<path d="M284.267 24.2891H296.853L308.699 60.779H308.91V24.2891H319.276V93.3554H309.228L295.372 51.5771H295.161V93.3554H284.267V24.2891ZM257.19 67.8654H249.152L253.277 34.8658H253.488L257.19 67.8654ZM235.19 93.3554H245.979L247.777 78.0191H258.248L260.151 93.3554H272.526L263.748 24.2891H245.027L235.19 93.3554ZM203.777 83.2017C211.498 83.2017 212.767 80.2402 212.767 73.048C212.767 66.702 211.181 63.1058 203.777 63.2116V83.2017ZM203.777 52.6348C210.229 52.6348 211.921 49.6733 211.921 43.5388C211.921 35.712 210.229 34.337 203.777 34.4428V52.6348ZM190.874 24.2891H206.739C214.671 24.2891 224.19 28.5198 224.19 41.7408C224.19 49.4618 220.594 55.4906 212.662 57.1829V57.3944C221.546 59.404 225.565 65.4328 225.565 74.2115C225.565 86.7979 216.787 93.4612 207.268 93.4612H190.768L190.874 24.2891ZM155.864 34.337H157.874C162.21 34.337 165.066 36.4524 165.066 43.9619C165.066 48.933 163.268 53.5868 158.509 53.5868H155.97L155.864 34.337ZM142.961 93.3554H155.864V63.6347H158.932L164.96 93.3554H177.97L170.355 60.779C176.066 57.5002 177.864 49.6733 177.864 43.9619C177.864 29.3659 169.72 24.3948 157.345 24.3948H142.855L142.961 93.3554ZM94.5191 24.2891H107.423V77.7018C107.423 80.7691 108.163 84.0479 111.865 84.0479C115.461 84.0479 116.625 81.0864 116.625 77.7018V24.2891H127.519V76.1153C127.519 89.6536 121.384 94.7304 111.019 94.7304C101.077 94.7304 94.4133 89.6536 94.4133 76.1153V24.2891H94.5191ZM378.506 161.258C378.506 170.777 381.256 182.623 395.111 182.623C406.746 182.623 412.88 174.162 412.88 163.585C412.88 143.489 389.4 139.576 389.4 127.836C389.4 124.028 391.198 121.49 394.265 121.49C399.448 121.49 399.448 127.942 399.448 131.855H410.976C410.659 119.48 406.217 110.807 394.582 110.807C383.688 110.807 377.871 119.269 377.871 129.634C377.871 150.047 401.351 152.903 401.351 165.172C401.351 168.028 399.871 171.835 395.534 171.835C389.929 171.835 389.929 165.066 389.929 161.153H378.506V161.258ZM346.141 141.48H348.679C353.439 141.48 355.237 136.826 355.237 131.855C355.237 124.345 352.487 122.23 348.044 122.23H346.141V141.48ZM333.237 112.182H347.727C359.996 112.182 368.246 117.259 368.246 131.749C368.246 137.566 366.448 145.287 360.737 148.672L368.352 181.248H355.342L349.314 151.528H346.141V181.248H333.237V112.182ZM290.824 181.248H320.756V170.566H303.728V151.739H315.785V140.528H303.728V122.865H320.016V112.182H290.824V181.248ZM256.132 122.865H245.027V112.182H280.247V122.865H269.142V181.248H256.238L256.132 122.865ZM215.517 181.248H228.421V122.865H239.527V112.182H204.306V122.865H215.412L215.517 181.248ZM181.249 112.182H194.152V181.248H181.249V112.182ZM141.268 181.248H154.172V152.585H166.018V141.374H154.172V122.97H170.143V112.288H141.268V181.248ZM106.577 122.865H95.471V112.182H130.692V122.865H119.586V181.248H106.682V122.865H106.577ZM52.2119 164.008C52.2119 177.547 58.8753 182.623 68.8175 182.623C79.1827 182.623 85.3173 177.547 85.3173 164.008V112.182H74.3174V165.595C74.3174 168.874 73.154 171.941 69.5579 171.941C65.7502 171.941 65.1156 168.768 65.1156 165.595V112.182H52.2119V164.008ZM15.0874 154.066C15.0874 168.979 16.8855 172.047 19.847 172.047C22.8085 172.047 24.6065 169.085 24.6065 154.066V139.47C24.6065 124.557 22.8085 121.49 19.847 121.49C16.8855 121.49 15.0874 124.451 15.0874 139.47V154.066ZM19.847 110.913C31.2699 110.913 38.7794 119.586 38.7794 146.768C38.7794 174.056 31.2699 182.623 19.847 182.623C8.42407 182.623 0.914551 173.951 0.914551 146.768C1.02032 119.48 8.42407 110.913 19.847 110.913Z" fill="black"/>
</g>
<defs>
<clipPath id="clip0_56_1676">
<rect width="411.642" height="205.821" fill="white" transform="translate(0.914551)"/>
</clipPath>
</defs>
</svg>
